# xmcd
#
# Track frame offsets:
#	150
#	16050
#	30410
#	37042
#	54677
#	74859
#	81942
#	99058
#	105803
#	121429
#	139714
#	157252
#
# Disc length: 2267 seconds
#
# Revision: 0
# Processed by: cddbd v1.5.2PL0 Copyright (c) Steve Scherf et al.
# Submitted via: EZCDAudioConverter 1.3.4.1
#
DISCID=9908d90c
DTITLE=Paavoharju - Joko sinä tulet alas tai minä nousen sinne
DYEAR=2013
DGENRE=
TTITLE0=Metsän hämärä
TTITLE1=Paatsaatkin kuolevat
TTITLE2=Krabat
TTITLE3=Sä olit
TTITLE4=Tumulus
TTITLE5=Kuolon uni
TTITLE6=Tattarisuo 1931
TTITLE7=Penuel
TTITLE8=Valkeat majat
TTITLE9=Olet maailman syli
TTITLE10=Minä nousen sinne
TTITLE11=Kolmas voima
EXTD=
EXTT0=
EXTT1=
EXTT2=
EXTT3=
EXTT4=
EXTT5=
EXTT6=
EXTT7=
EXTT8=
EXTT9=
EXTT10=
EXTT11=
PLAYORDER=
